# xmcd
# 
# Track frame offsets:
#     150
#     16096
#     34954
#     46432
#     66172
#     96713
#     117500
# 
# Disc length: 1951
# 
# Revision: 0
# Processed by: cddbd v1.5.2PL0 Copyright (c) Steve Scherf et al.
# Submitted via: fre:ac v1.0.17
# 
DISCID=61079d07
DTITLE=Ralph Myerz - My Darling
DYEAR=0
DGENRE=
TTITLE0=My Darling
TTITLE1=My Darling (Leca's 5th Floor Magic Mixxx)
TTITLE2=My Darling (Phil Corda's Cheap Funcoat Fest)
TTITLE3=My Darling (Kahuun Remix)
TTITLE4=MyDarling (Ralphz 4 AM Eternal Hidden Message Dub)
TTITLE5=My Darling (Rune Lindbaek Mix)
TTITLE6=My Darling (Doc L Jnr´s Sidechain Thunder)
EXTD=
EXTT0=
EXTT1=
EXTT2=
EXTT3=
EXTT4=
EXTT5=
EXTT6=
PLAYORDER=
